<svg width="11" height="12" viewBox="0 0 11 12" fill="none" xmlns="http://www.w3.org/2000/svg">
<path d="M10.4125 5.07579L5.41219 0.0729833C5.36519 0.0259835 5.30172 0 5.23525 0C5.16878 0 5.10529 0.0264989 5.05831 0.0734753L0.0729811 5.07579C0.00149726 5.14728 -0.0194957 5.25473 0.0189992 5.34821C0.0579861 5.44167 0.148963 5.50217 0.249922 5.50217H2.99899V11.7501C2.99899 11.888 3.11096 12 3.24891 12H7.24758C7.38553 12 7.4975 11.888 7.4975 11.7501V5.50214H10.2361C10.337 5.50214 10.428 5.44116 10.467 5.3477C10.506 5.25423 10.484 5.14728 10.4125 5.07579Z" fill="black" fill-opacity="0.3"/>
</svg>
