<svg width="215" height="28" viewBox="0 0 215 28" fill="none" xmlns="http://www.w3.org/2000/svg"><path d="M194.579 19.92L195.19 21.116C194.904 21.4193 194.492 21.6663 193.955 21.857C193.426 22.0477 192.867 22.143 192.278 22.143C190.891 22.143 189.76 21.714 188.885 20.856C188.018 19.998 187.585 18.8627 187.585 17.45C187.585 16.098 187.997 14.9757 188.82 14.083C189.635 13.199 190.774 12.757 192.239 12.757C193.4 12.757 194.323 13.0647 195.008 13.68L194.293 14.863C193.678 14.4557 192.993 14.252 192.239 14.252C191.372 14.252 190.662 14.5423 190.107 15.123C189.552 15.7037 189.275 16.4793 189.275 17.45C189.275 18.4033 189.565 19.1747 190.146 19.764C190.735 20.3533 191.494 20.648 192.421 20.648C193.218 20.648 193.938 20.4053 194.579 19.92ZM198.379 18.594V22H196.78V12.9C197.23 12.9 197.72 12.8957 198.249 12.887C198.777 12.8783 199.211 12.874 199.549 12.874C201.75 12.874 202.851 13.81 202.851 15.682C202.851 16.3753 202.673 16.9473 202.318 17.398C201.962 17.8313 201.555 18.126 201.096 18.282L203.943 22H202.006L199.497 18.594H198.379ZM199.471 14.369C199.427 14.369 199.358 14.3733 199.263 14.382C199.167 14.382 199.033 14.3863 198.86 14.395C198.686 14.395 198.526 14.395 198.379 14.395V17.099H199.419C199.93 17.099 200.346 16.9733 200.667 16.722C200.996 16.4707 201.161 16.1283 201.161 15.695C201.161 14.811 200.597 14.369 199.471 14.369ZM206.935 22H205.336V12.9H206.948L210.055 17.151L213.019 12.9H214.527V22H212.941V15.422L210.068 19.465H209.834L206.935 15.461V22Z" fill="#3A3A3A"/><path fill-rule="evenodd" clip-rule="evenodd" d="M67.5105 9.70965V6.47019H79.9501V9.70965H75.4796V21.5013H72.0458V9.70965H67.5105ZM110.207 17.4196C109.17 18.1971 108.004 18.521 106.967 18.521C104.246 18.521 102.432 16.6421 102.432 13.9858C102.432 11.0054 104.311 9.4505 106.643 9.4505C108.069 9.4505 108.911 9.90402 109.688 10.3575L111.179 7.76597C110.272 6.85892 108.587 6.21103 106.579 6.21103C101.395 6.21103 98.739 9.64487 98.739 13.9858C98.739 18.6506 101.978 21.7605 106.579 21.7605C108.587 21.7605 110.531 21.0478 111.438 20.0112L110.207 17.4196ZM113.835 21.5013H122.97V18.2619H117.269V15.5407H122.063V12.3012H117.269V9.70965H122.711V6.47019H113.835V21.5013ZM9.97756 16.9661C9.97756 20.1407 7.51557 21.5661 4.2761 21.5661C2.85073 21.5661 0.842262 21.5013 0 21.4365V6.53498C0.842262 6.47019 2.91552 6.4054 4.53526 6.4054C8.09867 6.4054 9.58883 8.02513 9.58883 10.1632C9.58883 11.7181 9.00572 12.7548 7.9043 13.5322V13.597C8.94093 13.921 9.97756 15.0224 9.97756 16.9661ZM3.43384 12.4308H4.53526C5.44231 12.4308 6.0902 12.0421 6.0902 11.0054C6.0902 10.0984 5.24794 9.64486 4.47047 9.64486C4.01694 9.64486 3.75778 9.70965 3.36905 9.70965V12.4308H3.43384ZM6.60852 16.7717C6.60852 15.7999 5.89583 15.4111 4.79441 15.4111H3.49863V18.1971C3.75778 18.2619 4.01694 18.3266 4.66483 18.3266C5.89583 18.3266 6.60852 17.8083 6.60852 16.7717ZM47.8146 6.47019L54.0343 21.4365H50.3413L49.1103 18.2619H43.1497L41.9187 21.4365H38.4849L44.7695 6.47019H47.8146ZM47.8793 15.152L46.1948 10.9407L44.5103 15.152H47.8793ZM66.0204 16.9661C66.0204 20.1407 63.5584 21.5661 60.3189 21.5661C58.8935 21.5661 56.8851 21.5013 56.0428 21.4365V6.53498C56.8851 6.47019 58.9583 6.4054 60.5781 6.4054C64.1415 6.4054 65.6316 8.02513 65.6316 10.1632C65.6316 11.7181 65.0485 12.7548 63.9471 13.5322V13.597C64.9189 13.921 66.0204 15.0224 66.0204 16.9661ZM59.4118 12.4308H60.5781C61.4851 12.4308 62.133 12.0421 62.133 11.0054C62.133 10.0984 61.2907 9.64486 60.5133 9.64486C60.0597 9.64486 59.8006 9.70965 59.4118 9.70965V12.4308ZM62.5865 16.7717C62.5865 15.7999 61.8738 15.4111 60.7724 15.4111H59.4766V18.1971C59.7358 18.2619 59.995 18.3266 60.6428 18.3266C61.8738 18.3266 62.5865 17.8083 62.5865 16.7717ZM96.277 13.9858C96.277 18.521 92.8432 21.7605 88.3079 21.7605C83.7727 21.7605 80.3388 18.7802 80.3388 13.9858C80.3388 9.64487 83.5135 6.21103 88.3079 6.21103C92.908 6.21103 96.277 9.19134 96.277 13.9858ZM92.6488 13.9858C92.6488 11.2646 90.7699 9.4505 88.3079 9.4505C85.8459 9.4505 83.967 11.2646 83.967 13.9858C83.967 16.5773 85.9107 18.521 88.3079 18.521C91.1586 18.521 92.6488 16.5125 92.6488 13.9858ZM136.835 11.3942C136.835 14.0505 134.762 16.4477 131.263 16.4477C130.939 16.4477 130.097 16.4477 129.579 16.383V21.5013H126.145V6.47019C126.987 6.47019 129.579 6.4054 130.745 6.4054C135.28 6.47019 136.835 8.8026 136.835 11.3942ZM133.142 11.3942C133.142 10.0984 132.3 9.64486 131.069 9.64486C130.615 9.64486 130.291 9.64487 129.579 9.70965V13.1435C130.097 13.2083 130.68 13.2731 131.134 13.2731C132.041 13.2083 133.142 12.8195 133.142 11.3942ZM149.599 16.9661C149.599 20.1407 147.137 21.5661 143.897 21.5661C142.472 21.5661 140.463 21.5013 139.621 21.4365V6.53498C140.463 6.47019 142.537 6.4054 144.156 6.4054C147.72 6.4054 149.21 8.02513 149.21 10.1632C149.21 11.7181 148.627 12.7548 147.525 13.5322V13.597C148.562 13.921 149.599 15.0224 149.599 16.9661ZM143.055 12.4308H144.221C145.128 12.4308 145.776 12.0421 145.776 11.0054C145.776 10.0984 144.934 9.64486 144.156 9.64486C143.703 9.64486 143.444 9.70965 143.055 9.70965V12.4308ZM146.165 16.7717C146.165 15.7999 145.452 15.4111 144.351 15.4111H143.055V18.1971C143.314 18.2619 143.573 18.3266 144.221 18.3266C145.517 18.3266 146.165 17.8083 146.165 16.7717ZM155.818 21.5013L162.427 12.1716V21.5013H165.861V6.47019H162.88L156.272 15.7999V6.47019H152.838V21.4365H155.818V21.5013ZM180.114 17.4196C179.078 18.1971 177.912 18.521 176.875 18.521C174.154 18.521 172.34 16.6421 172.34 13.9858C172.34 11.0054 174.219 9.4505 176.551 9.4505C177.976 9.4505 178.819 9.90402 179.596 10.3575L181.086 7.76597C180.179 6.85892 178.495 6.21103 176.486 6.21103C171.303 6.21103 168.647 9.64487 168.647 13.9858C168.647 18.6506 171.886 21.7605 176.486 21.7605C178.495 21.7605 180.438 21.0478 181.345 20.0112L180.114 17.4196Z" fill="#3A3A3A"/><path fill-rule="evenodd" clip-rule="evenodd" d="M37.8368 5.30396C36.7354 4.26733 34.6621 0.963074 31.8762 5.10959C31.1635 6.21101 30.6452 7.63638 30.2564 9.19132L22.1578 3.81381L14.3182 8.99696C14.5774 7.5068 14.9661 6.01664 15.5492 4.72086C18.076 -1.17498 20.862 0.120812 28.1832 0.120812C30.0621 0.120812 34.7917 -0.203135 36.217 0.444759C37.5128 1.02786 39.1974 3.29549 39.5861 5.30396H37.8368ZM29.8029 13.7266L22.1578 8.67301L13.9295 14.1153C13.9295 15.1519 13.9943 16.2534 14.1887 17.29L22.1578 11.9773L29.9973 17.1604C29.8677 16.059 29.8029 14.8928 29.8029 13.7266ZM22.1578 16.8365L15.0957 21.5013C15.5492 22.8619 16.0676 24.1577 16.7154 25.3887C18.7239 28.1098 20.9915 28.045 25.2029 27.9802H32.2649C34.1438 27.9802 35.7635 28.2394 37.2537 26.814C38.4847 25.7126 39.4565 23.9633 39.5861 22.5379H37.8368C37.1241 23.5098 36.6706 24.6112 35.1156 24.9351C33.8198 25.1943 32.7184 24.4816 31.8762 23.2506L22.1578 16.8365Z" fill="#6081D2"/></svg>