<svg width="20" height="12" viewBox="0 0 20 12" fill="none" xmlns="http://www.w3.org/2000/svg">
<path d="M10 0.0391388C6.17879 0.0391388 2.71351 2.12976 0.15649 5.52548C-0.0521632 5.80369 -0.0521632 6.19236 0.15649 6.47056C2.71351 9.87038 6.17879 11.961 10 11.961C13.8212 11.961 17.2865 9.87037 19.8435 6.47465C20.0522 6.19645 20.0522 5.80778 19.8435 5.52958C17.2865 2.12976 13.8212 0.0391388 10 0.0391388ZM10.2741 10.1977C7.73755 10.3572 5.64284 8.26661 5.80239 5.72595C5.93331 3.63124 7.63118 1.93338 9.72589 1.80246C12.2625 1.6429 14.3572 3.73352 14.1976 6.27418C14.0626 8.3648 12.3647 10.0627 10.2741 10.1977ZM10.1473 8.25843C8.78081 8.34434 7.65163 7.21926 7.74164 5.85278C7.81119 4.7236 8.72763 3.81126 9.85681 3.73761C11.2233 3.6517 12.3525 4.77679 12.2625 6.14326C12.1888 7.27653 11.2724 8.18888 10.1473 8.25843Z" fill="#6081D2"/>
</svg>
